<svg width="463" height="187" viewBox="0 0 463 187" fill="none" xmlns="http://www.w3.org/2000/svg">
<g clip-path="url(#clip0)">
<path d="M62 33.75V94.8433C58.9058 93.7242 55.6142 93 52.125 93C35.7325 93 22.5 106.233 22.5 122.625C22.5 139.018 35.7325 152.25 52.125 152.25C67.3325 152.25 79.775 140.729 81.4208 125.917H81.75V53.5H108.083V33.75H62Z" fill="#D99207"/>
<path d="M135.527 103.381C128.773 101.439 123.852 99.0605 120.762 96.2441C117.699 93.4004 116.168 89.9004 116.168 85.7441C116.168 81.041 118.041 77.1582 121.787 74.0957C125.561 71.0059 130.455 69.4609 136.471 69.4609C140.572 69.4609 144.223 70.2539 147.422 71.8398C150.648 73.4258 153.137 75.6133 154.887 78.4023C156.664 81.1914 157.553 84.2402 157.553 87.5488H149.637C149.637 83.9395 148.488 81.1094 146.191 79.0586C143.895 76.9805 140.654 75.9414 136.471 75.9414C132.588 75.9414 129.553 76.8027 127.365 78.5254C125.205 80.2207 124.125 82.5859 124.125 85.6211C124.125 88.0547 125.15 90.1191 127.201 91.8145C129.279 93.4824 132.793 95.0137 137.742 96.4082C142.719 97.8027 146.602 99.3477 149.391 101.043C152.207 102.711 154.285 104.666 155.625 106.908C156.992 109.15 157.676 111.789 157.676 114.824C157.676 119.664 155.789 123.547 152.016 126.473C148.242 129.371 143.197 130.82 136.881 130.82C132.779 130.82 128.951 130.041 125.396 128.482C121.842 126.896 119.094 124.736 117.152 122.002C115.238 119.268 114.281 116.164 114.281 112.691H122.197C122.197 116.301 123.523 119.158 126.176 121.264C128.855 123.342 132.424 124.381 136.881 124.381C141.037 124.381 144.223 123.533 146.438 121.838C148.652 120.143 149.76 117.832 149.76 114.906C149.76 111.98 148.734 109.725 146.684 108.139C144.633 106.525 140.914 104.939 135.527 103.381ZM209.068 76.7617H189.873V130H182.039V76.7617H162.885V70.2812H209.068V76.7617ZM228.1 70.2812L247.623 119.008L267.146 70.2812H277.359V130H269.484V106.744L270.223 81.6426L250.617 130H244.588L225.023 81.7656L225.803 106.744V130H217.928V70.2812H228.1ZM317.473 125.611C314.52 129.084 310.186 130.82 304.471 130.82C299.74 130.82 296.131 129.453 293.643 126.719C291.182 123.957 289.938 119.883 289.91 114.496V85.6211H297.498V114.291C297.498 121.018 300.232 124.381 305.701 124.381C311.498 124.381 315.354 122.221 317.268 117.9V85.6211H324.855V130H317.637L317.473 125.611ZM362.262 118.229C362.262 116.178 361.482 114.592 359.924 113.471C358.393 112.322 355.699 111.338 351.844 110.518C348.016 109.697 344.967 108.713 342.697 107.564C340.455 106.416 338.787 105.049 337.693 103.463C336.627 101.877 336.094 99.9902 336.094 97.8027C336.094 94.166 337.625 91.0898 340.688 88.5742C343.777 86.0586 347.715 84.8008 352.5 84.8008C357.531 84.8008 361.605 86.0996 364.723 88.6973C367.867 91.2949 369.439 94.6172 369.439 98.6641H361.811C361.811 96.5859 360.922 94.7949 359.145 93.291C357.395 91.7871 355.18 91.0352 352.5 91.0352C349.738 91.0352 347.578 91.6367 346.02 92.8398C344.461 94.043 343.682 95.6152 343.682 97.5566C343.682 99.3887 344.406 100.77 345.855 101.699C347.305 102.629 349.916 103.518 353.689 104.365C357.49 105.213 360.566 106.225 362.918 107.4C365.27 108.576 367.006 109.998 368.127 111.666C369.275 113.307 369.85 115.316 369.85 117.695C369.85 121.66 368.264 124.846 365.092 127.252C361.92 129.631 357.805 130.82 352.746 130.82C349.191 130.82 346.047 130.191 343.312 128.934C340.578 127.676 338.432 125.926 336.873 123.684C335.342 121.414 334.576 118.967 334.576 116.342H342.164C342.301 118.885 343.312 120.908 345.199 122.412C347.113 123.889 349.629 124.627 352.746 124.627C355.617 124.627 357.914 124.053 359.637 122.904C361.387 121.729 362.262 120.17 362.262 118.229ZM387.979 130H380.391V85.6211H387.979V130ZM379.775 73.8496C379.775 72.6191 380.145 71.5801 380.883 70.7324C381.648 69.8848 382.77 69.4609 384.246 69.4609C385.723 69.4609 386.844 69.8848 387.609 70.7324C388.375 71.5801 388.758 72.6191 388.758 73.8496C388.758 75.0801 388.375 76.1055 387.609 76.9258C386.844 77.7461 385.723 78.1562 384.246 78.1562C382.77 78.1562 381.648 77.7461 380.883 76.9258C380.145 76.1055 379.775 75.0801 379.775 73.8496ZM417.961 124.627C420.668 124.627 423.033 123.807 425.057 122.166C427.08 120.525 428.201 118.475 428.42 116.014H435.598C435.461 118.557 434.586 120.977 432.973 123.273C431.359 125.57 429.199 127.402 426.492 128.77C423.812 130.137 420.969 130.82 417.961 130.82C411.918 130.82 407.105 128.811 403.523 124.791C399.969 120.744 398.191 115.221 398.191 108.221V106.949C398.191 102.629 398.984 98.7871 400.57 95.4238C402.156 92.0605 404.426 89.4492 407.379 87.5898C410.359 85.7305 413.873 84.8008 417.92 84.8008C422.896 84.8008 427.025 86.291 430.307 89.2715C433.615 92.252 435.379 96.1211 435.598 100.879H428.42C428.201 98.0078 427.107 95.6562 425.139 93.8242C423.197 91.9648 420.791 91.0352 417.92 91.0352C414.064 91.0352 411.07 92.4297 408.938 95.2188C406.832 97.9805 405.779 101.986 405.779 107.236V108.672C405.779 113.785 406.832 117.723 408.938 120.484C411.043 123.246 414.051 124.627 417.961 124.627Z" fill="#D99207"/>
</g>
<defs>
<clipPath id="clip0">
<rect width="463" height="187" fill="white"/>
</clipPath>
</defs>
</svg>
